<?xml version="1.0" encoding="UTF-8"?>
<svg width="337px" height="91px" viewBox="0 0 337 91" version="1.1" xmlns="http://www.w3.org/2000/svg" xmlns:xlink="http://www.w3.org/1999/xlink">
    <!-- Generator: Sketch 54.1 (76490) - https://sketchapp.com -->
    <desc>Created with Sketch.</desc>
    <g id="Page-1" stroke="none" stroke-width="1" fill="none" fill-rule="evenodd">
        <g id="Desktop-HD" transform="translate(-493.000000, -653.000000)" fill="#00B300" fill-rule="nonzero">
            <g id="content" transform="translate(30.000000, 38.000000)">
                <path d="M493.57,683.72 C474.58,683.72 463.24,669.86 463.24,652.85 C463.24,635.75 474.58,621.89 493.57,621.89 C504.73,621.89 513.19,626.75 518.32,634.22 L505.54,642.5 C502.66,638.09 497.89,635.21 493.57,635.21 C484.66,635.21 478.72,642.23 478.72,652.85 C478.72,663.38 484.66,670.4 493.57,670.4 C497.98,670.4 502.75,667.52 505.54,663.2 L518.32,671.39 C513.19,678.86 504.73,683.72 493.57,683.72 Z M551.52,638 L565.74,638 L565.74,683 L551.52,683 L551.52,681.38 C548.46,682.91 545.04,683.72 541.44,683.72 C528.57,683.72 518.22,673.28 518.22,660.5 C518.22,647.72 528.57,637.28 541.44,637.28 C545.04,637.28 548.46,638.09 551.52,639.62 L551.52,638 Z M541.89,670.4 C547.29,670.4 550.89,666.44 550.89,660.5 C550.89,654.56 547.29,650.6 541.89,650.6 C536.49,650.6 532.89,654.56 532.89,660.5 C532.89,666.44 536.49,670.4 541.89,670.4 Z M597.86,637.28 C599.66,637.28 601.37,637.55 602.9,638 L599.12,653.03 C597.23,651.41 595.34,650.33 594.35,650.33 C589.85,650.33 586.88,653.84 586.88,659.06 L586.88,683 L572.66,683 L572.66,638 L586.88,638 L586.88,641.69 C589.94,638.9 593.9,637.28 597.86,637.28 Z M635.02,615.95 L649.24,615.95 L649.24,683 L635.02,683 L635.02,681.38 C631.96,682.91 628.54,683.72 624.94,683.72 C612.07,683.72 601.72,673.28 601.72,660.5 C601.72,647.72 612.07,637.28 624.94,637.28 C628.54,637.28 631.96,638.09 635.02,639.62 L635.02,615.95 Z M625.39,670.4 C630.79,670.4 634.39,666.44 634.39,660.5 C634.39,654.56 630.79,650.6 625.39,650.6 C619.99,650.6 616.39,654.56 616.39,660.5 C616.39,666.44 619.99,670.4 625.39,670.4 Z M680.46,637.28 C693.33,637.28 703.68,647.72 703.68,660.5 C703.68,673.28 693.33,683.72 680.46,683.72 C676.86,683.72 673.44,682.91 670.38,681.38 L670.38,705.05 L656.16,705.05 L656.16,638 L670.38,638 L670.38,639.62 C673.44,638.09 676.86,637.28 680.46,637.28 Z M680.01,670.4 C685.41,670.4 689.01,666.44 689.01,660.5 C689.01,654.56 685.41,650.6 680.01,650.6 C674.61,650.6 671.01,654.56 671.01,660.5 C671.01,666.44 674.61,670.4 680.01,670.4 Z M740.3,638 L754.52,638 L754.52,683 L740.3,683 L740.3,681.38 C737.24,682.91 733.82,683.72 730.22,683.72 C717.35,683.72 707,673.28 707,660.5 C707,647.72 717.35,637.28 730.22,637.28 C733.82,637.28 737.24,638.09 740.3,639.62 L740.3,638 Z M730.67,670.4 C736.07,670.4 739.67,666.44 739.67,660.5 C739.67,654.56 736.07,650.6 730.67,650.6 C725.27,650.6 721.67,654.56 721.67,660.5 C721.67,666.44 725.27,670.4 730.67,670.4 Z M785.47,638 L799.69,638 L776.92,699.2 L762.7,699.2 L770.26,678.86 L754.69,638 L768.91,638 L777.28,659.96 L785.47,638 Z" id="Cardpay"></path>
            </g>
        </g>
    </g>
</svg>
