<?xml version="1.0" encoding="UTF-8"?>
<svg width="607px" height="66px" viewBox="0 0 607 66" version="1.1" xmlns="http://www.w3.org/2000/svg" xmlns:xlink="http://www.w3.org/1999/xlink">
    <!-- Generator: Sketch 54.1 (76490) - https://sketchapp.com -->
    <desc>Created with Sketch.</desc>
    <g id="Page-1" stroke="none" stroke-width="1" fill="none" fill-rule="evenodd">
        <g id="Desktop-HD" transform="translate(-244.000000, -749.000000)" fill="#000000" fill-rule="nonzero">
            <g id="content" transform="translate(30.000000, 38.000000)">
                <path d="M234.66,712.09 L234.66,724.24 L219,724.24 L219,712.09 L234.66,712.09 Z M234.66,761.41 L239.43,761.41 L239.43,775 L214.23,775 L214.23,761.41 L219,761.41 L219,743.95 L214.23,743.95 L214.23,730.45 L234.75,730.45 L234.66,761.41 Z M299.63,761.41 L304.58,761.41 L304.58,775 L279.29,775 L279.29,761.41 L283.88,761.41 L283.88,752.59 C283.88,746.83 281.63,742.87 274.88,742.87 C269.3,742.87 265.88,747.64 265.88,752.59 L265.88,761.41 L270.83,761.41 L270.83,775 L245.54,775 L245.54,761.41 L250.22,761.41 L250.22,744.04 L245.54,744.04 L245.54,730.45 L263.54,730.45 L265.52,735.4 L265.97,735.4 C268.22,731.35 272.18,729.1 278.57,729.1 C292.07,729.1 299.63,736.57 299.63,752.59 L299.63,761.41 Z M363.24,724.69 C357.84,724.69 356.13,726.04 356.13,729.1 L356.13,730.45 L363.87,730.45 L363.87,743.95 L356.04,743.95 L356.04,761.41 L360.81,761.41 L360.81,775 L335.52,775 L335.52,761.41 L340.29,761.41 L340.29,743.95 L335.88,743.95 L335.88,730.45 L340.38,730.45 L340.38,729.1 C340.38,716.59 346.41,711.1 360.54,711.1 C362.88,711.1 364.95,711.46 366.57,711.82 L366.57,725.05 C365.49,724.87 364.41,724.69 363.24,724.69 Z M391.94,729.01 C405.62,729.01 416.78,739.63 416.78,752.68 C416.78,765.82 405.62,776.44 391.94,776.44 C378.26,776.44 367.19,765.82 367.19,752.68 C367.19,739.63 378.26,729.01 391.94,729.01 Z M391.94,763.12 C396.89,763.12 400.94,758.53 400.94,752.95 C400.94,747.37 396.89,742.87 391.94,742.87 C386.99,742.87 382.94,747.37 382.94,752.95 C382.94,758.53 386.99,763.12 391.94,763.12 Z M454.12,729.1 C457.72,729.1 460.06,730 463.03,731.8 L456.73,745.3 C455.38,744.58 453.85,744.04 451.42,744.04 C445.84,744.04 443.77,748.81 443.77,753.76 L443.77,761.41 L448.63,761.41 L448.63,775 L423.34,775 L423.34,761.41 L428.02,761.41 L428.02,744.04 L423.34,744.04 L423.34,730.45 L441.25,730.45 L443.41,735.4 L443.77,735.4 C446.11,731.35 449.53,729.1 454.12,729.1 Z M539.96,761.41 L545.09,761.41 L545.09,775 L526.1,775 L524.21,769.87 L524.21,752.5 C524.21,746.74 520.16,742.87 515.21,742.87 C510.26,742.87 506.3,746.83 506.3,752.5 C506.3,759.07 510.53,762.94 514.58,762.94 C517.1,762.94 519.26,762.13 520.97,760.69 L520.97,773.38 C518.36,775.45 514.76,776.35 511.52,776.35 C496.94,776.35 490.46,766.54 490.46,752.5 C490.46,736.48 500.9,729.01 511.52,729.01 C516.47,729.01 520.43,731.26 522.77,735.31 L523.04,735.31 L526.46,730.45 L539.96,730.45 L539.96,761.41 Z M603.75,762.49 L603.75,775.81 C602.76,775.99 601.68,775.99 600.51,775.99 C587.73,775.99 580.35,772.12 580.35,759.79 L580.35,744.04 L575.94,744.04 L575.94,730.45 L580.35,730.45 L580.35,717.85 L596.1,714.61 L596.1,730.45 L603.75,730.45 L603.75,744.04 L596.1,744.04 L596.1,755.29 C596.1,761.23 598.89,762.49 603.12,762.49 L603.75,762.49 Z M632.81,761.41 L637.67,761.41 L637.67,775 L612.38,775 L612.38,761.41 L617.06,761.41 L617.06,744.04 L612.38,744.04 L612.38,730.45 L630.29,730.45 L632.81,735.4 L632.81,761.41 Z M643.16,729.1 C646.76,729.1 649.1,730 652.07,731.8 L645.77,745.3 C644.42,744.58 642.89,744.04 640.46,744.04 C638.66,744.04 637.22,744.58 636.14,745.39 L636.14,731.44 C638.03,729.91 640.37,729.1 643.16,729.1 Z M667.27,756.1 C668.44,759.79 670.96,763.12 675.19,763.12 C678.61,763.12 681.04,761.68 683.38,758.89 L696.79,765.19 C692.83,771.4 685.18,776.44 675.37,776.44 C662.68,776.44 650.89,766.27 650.89,752.77 C650.89,739.63 662.59,729.01 675.37,729.01 C690.49,729.01 699.76,739.54 700.39,754.21 L700.39,756.1 L670.06,756.1 L670.06,748.99 L683.29,748.99 C682.03,745.84 679.96,742.87 675.73,742.87 C671.05,742.87 668.71,745.48 667.45,748.99 C666.73,751.15 666.64,753.58 667.27,756.1 Z M757.17,761.41 L762.3,761.41 L762.3,775 L743.31,775 L741.42,769.87 L741.42,752.5 C741.42,746.74 737.37,742.87 732.42,742.87 C727.47,742.87 723.51,746.83 723.51,752.5 C723.51,759.07 727.74,762.94 731.79,762.94 C734.31,762.94 736.47,762.13 738.18,760.69 L738.18,773.38 C735.57,775.45 731.97,776.35 728.73,776.35 C714.15,776.35 707.67,766.54 707.67,752.5 C707.67,736.48 718.11,729.01 728.73,729.01 C733.68,729.01 737.64,731.26 739.98,735.31 L740.25,735.31 L743.67,730.45 L757.17,730.45 L757.17,761.41 Z M794.96,762.49 L794.96,775.81 C793.97,775.99 792.89,775.99 791.72,775.99 C778.94,775.99 771.56,772.12 771.56,759.79 L771.56,744.04 L767.15,744.04 L767.15,730.45 L771.56,730.45 L771.56,717.85 L787.31,714.61 L787.31,730.45 L794.96,730.45 L794.96,744.04 L787.31,744.04 L787.31,755.29 C787.31,761.23 790.1,762.49 794.33,762.49 L794.96,762.49 Z M804.4,759.52 L820.24,759.52 L820.24,775 L804.4,775 L804.4,759.52 Z" id="inforatreat."></path>
            </g>
        </g>
    </g>
</svg>
