<?xml version="1.0" encoding="UTF-8"?>
<svg width="225px" height="64px" viewBox="0 0 225 64" version="1.1" xmlns="http://www.w3.org/2000/svg" xmlns:xlink="http://www.w3.org/1999/xlink">
    <!-- Generator: Sketch 54.1 (76490) - https://sketchapp.com -->
    <desc>Created with Sketch.</desc>
    <g id="Page-1" stroke="none" stroke-width="1" fill="none" fill-rule="evenodd">
        <g id="Desktop-HD" transform="translate(-244.000000, -657.000000)" fill="#000000" fill-rule="nonzero">
            <g id="content" transform="translate(30.000000, 38.000000)">
                <path d="M290.91,619.09 L308.46,619.09 L308.46,632.68 L304.14,632.68 L288.57,682 L271.11,682 L261.48,650.5 L261.21,650.5 L251.67,682 L234.03,682 L218.55,632.68 L214.23,632.68 L214.23,619.09 L231.69,619.09 L243.93,659.86 L244.2,659.86 L256.53,619.09 L266.16,619.09 L278.4,659.86 L278.67,659.86 L290.91,619.09 Z M333.83,619.09 L333.83,631.24 L318.17,631.24 L318.17,619.09 L333.83,619.09 Z M333.83,668.41 L338.6,668.41 L338.6,682 L313.4,682 L313.4,668.41 L318.17,668.41 L318.17,650.95 L313.4,650.95 L313.4,637.45 L333.92,637.45 L333.83,668.41 Z M371.98,669.49 L371.98,682.81 C370.99,682.99 369.91,682.99 368.74,682.99 C355.96,682.99 348.58,679.12 348.58,666.79 L348.58,651.13 L344.17,651.13 L344.17,637.45 L348.58,637.45 L348.58,624.85 L364.33,621.61 L364.33,637.45 L371.98,637.45 L371.98,651.13 L364.33,651.13 L364.33,662.29 C364.33,668.23 367.12,669.49 371.35,669.49 L371.98,669.49 Z M433.89,668.41 L438.48,668.41 L438.48,682 L413.28,682 L413.28,668.41 L418.05,668.41 L418.05,659.41 C418.05,653.74 416.34,649.87 409.14,649.87 C403.56,649.87 400.23,654.46 400.23,659.41 L400.23,668.41 L405,668.41 L405,682 L379.71,682 L379.71,668.41 L384.39,668.41 L384.39,632.59 L379.98,632.59 L379.98,619.09 L400.14,619.09 L400.14,642.22 L400.5,642.22 C402.93,637.72 407.7,636.01 412.74,636.01 C426.24,636.01 433.89,643.39 433.89,659.41 L433.89,668.41 Z" id="With"></path>
            </g>
        </g>
    </g>
</svg>
