<?xml version="1.0" encoding="UTF-8"?>
<svg width="175px" height="66px" viewBox="0 0 175 66" version="1.1" xmlns="http://www.w3.org/2000/svg" xmlns:xlink="http://www.w3.org/1999/xlink">
    <!-- Generator: Sketch 54.1 (76490) - https://sketchapp.com -->
    <desc>Created with Sketch.</desc>
    <g id="Page-1" stroke="none" stroke-width="1" fill="none" fill-rule="evenodd">
        <g id="Desktop-HD" transform="translate(-864.000000, -675.000000)" fill="#000000" fill-rule="nonzero">
            <g id="content" transform="translate(30.000000, 38.000000)">
                <path d="M871.67,638.45 L888.23,638.45 L888.23,652.04 L883.19,652.04 L861.14,702.44 L845.93,702.44 L845.93,688.85 L851.06,688.85 L853.49,682.91 L839.36,652.04 L834.23,652.04 L834.23,638.45 L850.52,638.45 L860.96,665.45 L861.14,665.45 L871.67,638.45 Z M919,637.01 C932.68,637.01 943.84,647.63 943.84,660.68 C943.84,673.82 932.68,684.44 919,684.44 C905.32,684.44 894.25,673.82 894.25,660.68 C894.25,647.63 905.32,637.01 919,637.01 Z M919,671.12 C923.95,671.12 928,666.53 928,660.95 C928,655.37 923.95,650.87 919,650.87 C914.05,650.87 910,655.37 910,660.95 C910,666.53 914.05,671.12 919,671.12 Z M1003.59,669.41 L1008.27,669.41 L1008.27,683 L990.18,683 L988.11,678.23 L987.48,678.23 C985.14,682.28 978.84,684.44 975.15,684.44 C964.53,684.44 954.09,677.06 954.09,660.95 L954.09,652.04 L949.14,652.04 L949.14,638.45 L969.93,638.45 L969.93,660.95 C969.93,666.62 972.9,671.03 978.84,671.03 C984.33,671.03 987.75,665.9 987.75,660.95 L987.75,652.04 L982.8,652.04 L982.8,638.45 L1003.59,638.45 L1003.59,669.41 Z" id="you"></path>
            </g>
        </g>
    </g>
</svg>
