<?xml version="1.0" encoding="UTF-8"?>
<svg width="811px" height="84px" viewBox="0 0 811 84" version="1.1" xmlns="http://www.w3.org/2000/svg" xmlns:xlink="http://www.w3.org/1999/xlink">
    <!-- Generator: Sketch 54.1 (76490) - https://sketchapp.com -->
    <desc>Created with Sketch.</desc>
    <g id="Page-1" stroke="none" stroke-width="1" fill="none" fill-rule="evenodd">
        <g id="Desktop-HD" transform="translate(-244.000000, -757.000000)" fill="#000000" fill-rule="nonzero">
            <g id="content" transform="translate(30.000000, 38.000000)">
                <path d="M251.67,738.45 L268.23,738.45 L268.23,752.04 L263.19,752.04 L241.14,802.44 L225.93,802.44 L225.93,788.85 L231.06,788.85 L233.49,782.91 L219.36,752.04 L214.23,752.04 L214.23,738.45 L230.52,738.45 L240.96,765.45 L241.14,765.45 L251.67,738.45 Z M299,737.01 C312.68,737.01 323.84,747.63 323.84,760.68 C323.84,773.82 312.68,784.44 299,784.44 C285.32,784.44 274.25,773.82 274.25,760.68 C274.25,747.63 285.32,737.01 299,737.01 Z M299,771.12 C303.95,771.12 308,766.53 308,760.95 C308,755.37 303.95,750.87 299,750.87 C294.05,750.87 290,755.37 290,760.95 C290,766.53 294.05,771.12 299,771.12 Z M383.59,769.41 L388.27,769.41 L388.27,783 L370.18,783 L368.11,778.23 L367.48,778.23 C365.14,782.28 358.84,784.44 355.15,784.44 C344.53,784.44 334.09,777.06 334.09,760.95 L334.09,752.04 L329.14,752.04 L329.14,738.45 L349.93,738.45 L349.93,760.95 C349.93,766.62 352.9,771.03 358.84,771.03 C364.33,771.03 367.75,765.9 367.75,760.95 L367.75,752.04 L362.8,752.04 L362.8,738.45 L383.59,738.45 L383.59,769.41 Z M438.83,720.09 L438.83,732.24 L423.17,732.24 L423.17,720.09 L438.83,720.09 Z M438.83,769.41 L443.6,769.41 L443.6,783 L418.4,783 L418.4,769.41 L423.17,769.41 L423.17,751.95 L418.4,751.95 L418.4,738.45 L438.92,738.45 L438.83,769.41 Z M503.8,769.41 L508.75,769.41 L508.75,783 L483.46,783 L483.46,769.41 L488.05,769.41 L488.05,760.59 C488.05,754.83 485.8,750.87 479.05,750.87 C473.47,750.87 470.05,755.64 470.05,760.59 L470.05,769.41 L475,769.41 L475,783 L449.71,783 L449.71,769.41 L454.39,769.41 L454.39,752.04 L449.71,752.04 L449.71,738.45 L467.71,738.45 L469.69,743.4 L470.14,743.4 C472.39,739.35 476.35,737.1 482.74,737.1 C496.24,737.1 503.8,744.57 503.8,760.59 L503.8,769.41 Z M567.41,732.69 C562.01,732.69 560.3,734.04 560.3,737.1 L560.3,738.45 L568.04,738.45 L568.04,751.95 L560.21,751.95 L560.21,769.41 L564.98,769.41 L564.98,783 L539.69,783 L539.69,769.41 L544.46,769.41 L544.46,751.95 L540.05,751.95 L540.05,738.45 L544.55,738.45 L544.55,737.1 C544.55,724.59 550.58,719.1 564.71,719.1 C567.05,719.1 569.12,719.46 570.74,719.82 L570.74,733.05 C569.66,732.87 568.58,732.69 567.41,732.69 Z M596.11,737.01 C609.79,737.01 620.95,747.63 620.95,760.68 C620.95,773.82 609.79,784.44 596.11,784.44 C582.43,784.44 571.36,773.82 571.36,760.68 C571.36,747.63 582.43,737.01 596.11,737.01 Z M596.11,771.12 C601.06,771.12 605.11,766.53 605.11,760.95 C605.11,755.37 601.06,750.87 596.11,750.87 C591.16,750.87 587.11,755.37 587.11,760.95 C587.11,766.53 591.16,771.12 596.11,771.12 Z M658.29,737.1 C661.89,737.1 664.23,738 667.2,739.8 L660.9,753.3 C659.55,752.58 658.02,752.04 655.59,752.04 C650.01,752.04 647.94,756.81 647.94,761.76 L647.94,769.41 L652.8,769.41 L652.8,783 L627.51,783 L627.51,769.41 L632.19,769.41 L632.19,752.04 L627.51,752.04 L627.51,738.45 L645.42,738.45 L647.58,743.4 L647.94,743.4 C650.28,739.35 653.7,737.1 658.29,737.1 Z M744.13,769.41 L749.26,769.41 L749.26,783 L730.27,783 L728.38,777.87 L728.38,760.5 C728.38,754.74 724.33,750.87 719.38,750.87 C714.43,750.87 710.47,754.83 710.47,760.5 C710.47,767.07 714.7,770.94 718.75,770.94 C721.27,770.94 723.43,770.13 725.14,768.69 L725.14,781.38 C722.53,783.45 718.93,784.35 715.69,784.35 C701.11,784.35 694.63,774.54 694.63,760.5 C694.63,744.48 705.07,737.01 715.69,737.01 C720.64,737.01 724.6,739.26 726.94,743.31 L727.21,743.31 L730.63,738.45 L744.13,738.45 L744.13,769.41 Z M807.92,770.49 L807.92,783.81 C806.93,783.99 805.85,783.99 804.68,783.99 C791.9,783.99 784.52,780.12 784.52,767.79 L784.52,752.04 L780.11,752.04 L780.11,738.45 L784.52,738.45 L784.52,725.85 L800.27,722.61 L800.27,738.45 L807.92,738.45 L807.92,752.04 L800.27,752.04 L800.27,763.29 C800.27,769.23 803.06,770.49 807.29,770.49 L807.92,770.49 Z M836.98,769.41 L841.84,769.41 L841.84,783 L816.55,783 L816.55,769.41 L821.23,769.41 L821.23,752.04 L816.55,752.04 L816.55,738.45 L834.46,738.45 L836.98,743.4 L836.98,769.41 Z M847.33,737.1 C850.93,737.1 853.27,738 856.24,739.8 L849.94,753.3 C848.59,752.58 847.06,752.04 844.63,752.04 C842.83,752.04 841.39,752.58 840.31,753.39 L840.31,739.44 C842.2,737.91 844.54,737.1 847.33,737.1 Z M871.44,764.1 C872.61,767.79 875.13,771.12 879.36,771.12 C882.78,771.12 885.21,769.68 887.55,766.89 L900.96,773.19 C897,779.4 889.35,784.44 879.54,784.44 C866.85,784.44 855.06,774.27 855.06,760.77 C855.06,747.63 866.76,737.01 879.54,737.01 C894.66,737.01 903.93,747.54 904.56,762.21 L904.56,764.1 L874.23,764.1 L874.23,756.99 L887.46,756.99 C886.2,753.84 884.13,750.87 879.9,750.87 C875.22,750.87 872.88,753.48 871.62,756.99 C870.9,759.15 870.81,761.58 871.44,764.1 Z M961.34,769.41 L966.47,769.41 L966.47,783 L947.48,783 L945.59,777.87 L945.59,760.5 C945.59,754.74 941.54,750.87 936.59,750.87 C931.64,750.87 927.68,754.83 927.68,760.5 C927.68,767.07 931.91,770.94 935.96,770.94 C938.48,770.94 940.64,770.13 942.35,768.69 L942.35,781.38 C939.74,783.45 936.14,784.35 932.9,784.35 C918.32,784.35 911.84,774.54 911.84,760.5 C911.84,744.48 922.28,737.01 932.9,737.01 C937.85,737.01 941.81,739.26 944.15,743.31 L944.42,743.31 L947.84,738.45 L961.34,738.45 L961.34,769.41 Z M999.13,770.49 L999.13,783.81 C998.14,783.99 997.06,783.99 995.89,783.99 C983.11,783.99 975.73,780.12 975.73,767.79 L975.73,752.04 L971.32,752.04 L971.32,738.45 L975.73,738.45 L975.73,725.85 L991.48,722.61 L991.48,738.45 L999.13,738.45 L999.13,752.04 L991.48,752.04 L991.48,763.29 C991.48,769.23 994.27,770.49 998.5,770.49 L999.13,770.49 Z M1008.57,767.52 L1024.41,767.52 L1024.41,783 L1008.57,783 L1008.57,767.52 Z" id="youinforatreat."></path>
            </g>
        </g>
    </g>
</svg>
