<svg width="100%" viewBox="0 0 936 260" fill="none" xmlns="http://www.w3.org/2000/svg">
    <path d="M121.967 6.02277L0 158.692V220.681H145.722V253.977H215.924V6.02277H121.967ZM145.722 68.3656V158.692H73.7475L145.722 68.3656Z" fill="#E2E6EF"/>
    <path d="M453.95 223.514C474.869 199.427 485.151 168.256 485.151 130C485.151 91.7442 474.869 60.5728 453.95 36.84C433.386 12.753 403.958 0.709473 365.666 0.709473C327.374 0.709473 297.946 12.753 277.027 36.84C256.463 60.5728 246.181 91.7442 246.181 130C246.181 168.256 256.463 199.427 277.027 223.514C297.946 247.247 327.374 259.291 365.666 259.291C403.958 259.291 433.386 247.247 453.95 223.514ZM330.21 177.82C322.055 166.131 317.801 150.191 317.801 130C317.801 109.809 322.055 93.8695 330.21 82.1802C338.365 70.491 350.42 64.8234 365.666 64.8234C380.912 64.8234 392.966 70.491 401.121 82.1802C409.276 93.8695 413.531 109.809 413.531 130C413.531 150.191 409.276 166.131 401.121 177.82C392.966 189.509 380.912 195.177 365.666 195.177C350.42 195.177 338.365 189.509 330.21 177.82Z" fill="#E2E6EF"/>
    <path d="M628.178 6.02277L506.211 158.692V220.681H651.933V253.977H707.155C710.466 253.977 712.272 250.114 710.15 247.573V247.573C708.913 246.093 708.943 243.932 710.22 242.487L715.068 237C719.104 232.431 719.104 225.569 715.068 221V221C711.031 216.431 711.031 209.569 715.068 205V205C719.104 200.431 719.104 193.569 715.068 189V189C711.031 184.431 711.031 177.569 715.068 173V173C719.104 168.431 719.104 161.569 715.068 157V157C711.031 152.431 711.031 145.569 715.068 141V141C719.104 136.431 719.104 129.569 715.068 125V125C711.031 120.431 711.031 113.569 715.068 109V109C719.104 104.431 719.104 97.5695 715.068 93V93C711.031 88.4305 711.031 81.5695 715.068 77V77C719.104 72.4305 719.104 65.5695 715.068 61V61C711.031 56.4305 711.09 49.5028 715.126 44.9333V44.9333C719.097 40.4394 719.155 33.6262 715.184 29.1323L711.852 25.3607C709.671 22.8909 709.732 19.165 711.994 16.7683V16.7683C715.829 12.7041 712.948 6.02277 707.36 6.02277H628.178ZM651.933 68.3656V158.692H579.958L651.933 68.3656Z" fill="#E2E6EF"/>
    <path d="M750.286 9.03059C752.073 6.95115 754.678 5.75488 757.42 5.75488H896C918.091 5.75488 936 23.6635 936 45.7549V214.245C936 236.336 918.091 254.245 896 254.245H751.207C749.487 254.245 747.851 253.501 746.721 252.205V252.205C742.855 247.773 742.831 241.151 746.627 236.659V236.659C750.363 232.239 750.441 225.751 746.774 221.273L746.498 220.936C742.719 216.32 742.745 209.648 746.524 205.032V205.032C750.334 200.379 750.36 193.653 746.551 189V189C742.741 184.347 742.741 177.653 746.551 173V173C750.36 168.347 750.36 161.653 746.551 157V157C742.741 152.347 742.741 145.653 746.551 141V141C750.36 136.347 750.36 129.653 746.551 125V125C742.741 120.347 742.741 113.653 746.551 109V109C750.36 104.347 750.36 97.6529 746.551 93V93C742.741 88.3471 742.741 81.6529 746.551 77V77C750.36 72.3471 750.36 65.6529 746.551 61V61C742.741 56.3471 742.781 49.6042 746.59 44.9513V44.9513C750.354 40.3547 750.394 33.6935 746.63 29.0969V29.0969C742.795 24.4138 742.876 17.6537 746.821 13.0632L750.286 9.03059Z" fill="#F0F5FA"/>
    <path fill-rule="evenodd" clip-rule="evenodd" d="M748.759 97C748.284 95.5756 747.548 94.2179 746.551 93C742.741 88.3471 742.741 81.6529 746.551 77C750.36 72.3471 750.36 65.6529 746.551 61C743.018 56.6861 742.795 50.5757 745.818 46H936V97H748.759Z" fill="#C4CBD9"/>
    <circle cx="872.931" cy="210.097" r="17.6592" fill="#C4CBD9"/>
    <circle cx="893.113" cy="210.097" r="17.6592" fill="#E2E6EF"/>
</svg>
