<svg id="4c1e498c-a5de-47e4-8305-47b9f13aebd7" data-name="Layer 1" xmlns="http://www.w3.org/2000/svg" viewBox="0 0 107 48"><g id="99b01028-ad8f-4e22-81d2-0872b73c2d23" data-name="logo"><path d="M90,26.5a.6.6,0,0,0-.65.44l-2.76,6.65a.64.64,0,0,1-1.21,0l-3.15-6.8a.49.49,0,0,0-.52-.32h-4.8l6.3,13.4a.91.91,0,0,1,0,.79L80.18,48h4.64a.6.6,0,0,0,.68-.4L94.72,26.5Z" fill="#00b300"/><path d="M59.91,30.26a6.36,6.36,0,0,0-6.24-4.49h-.48A4.12,4.12,0,0,0,50,27.24a.72.72,0,0,1-.84.24V26.17h-5V47.62h5.19V40.36a.69.69,0,0,1,.86.29,3.17,3.17,0,0,0,1.66,1.13A6.3,6.3,0,0,0,59.21,39,11.06,11.06,0,0,0,59.91,30.26Zm-5.14,6.19a2.85,2.85,0,0,1-2.53,1.39,2.7,2.7,0,0,1-2.38-1.27,5.78,5.78,0,0,1,0-5.31A2.71,2.71,0,0,1,52.81,30,2.6,2.6,0,0,1,55,31.9,6.89,6.89,0,0,1,54.77,36.45Z" fill="#00b300"/><path d="M76.6,32a10.34,10.34,0,0,0-.08-1.29,4.88,4.88,0,0,0-3.25-4.29,11,11,0,0,0-3.84-.7A11.24,11.24,0,0,0,66,26.3a5.1,5.1,0,0,0-3.34,2.78,7.63,7.63,0,0,0-.48,1.71H67.4c.42-1.13,1.49-1.58,2.91-1.23a1.76,1.76,0,0,1,1.26,2.15H68.31a9.32,9.32,0,0,0-3.77.66,5,5,0,0,0-1.34,8.41,5.93,5.93,0,0,0,4.13,1.32,5.25,5.25,0,0,0,3.54-1.31c.32-.27.53-.43,1-.27v1.19H76.6S76.61,35.13,76.6,32Zm-6,5.72a2.93,2.93,0,0,1-1.72.55A3.32,3.32,0,0,1,67.57,38a1.57,1.57,0,0,1-.89-1.47,1.52,1.52,0,0,1,.77-1.37,2.66,2.66,0,0,1,1.3-.36c.93-.05,2.84,0,2.84,0C71.65,36,71.62,37,70.61,37.75Z" fill="#00b300"/><path d="M37.06,5.89H2.63A2.63,2.63,0,0,0,0,8.52V30.15a2.63,2.63,0,0,0,2.63,2.63H37.06a2.63,2.63,0,0,0,2.63-2.63V8.52A2.63,2.63,0,0,0,37.06,5.89ZM34.64,27.74H5V10.93h29.6Z" fill="#00b300"/><path d="M86,6.18a3.35,3.35,0,0,0-2.11,1.21.7.7,0,0,1-.87.29V6H78V21.5h5.19s0-4.78,0-6.88a3.55,3.55,0,0,1,3.54-3.79c.76-.08,1.56-.09,2.3-.11V5.89A23.87,23.87,0,0,0,86,6.18" fill="#00b300"/><path d="M50,5.64A7.07,7.07,0,0,0,44.15,10a9.54,9.54,0,0,0-.6,5.22,7.12,7.12,0,0,0,3.9,5.74,9,9,0,0,0,5.84.71,6.83,6.83,0,0,0,4.5-2.75,5.62,5.62,0,0,0,1.07-3H54a.38.38,0,0,0-.36.28,2.41,2.41,0,0,1-.63,1,2.67,2.67,0,0,1-3.84-.86A6,6,0,0,1,49,11.49a2.59,2.59,0,0,1,3.36-1.59,1.53,1.53,0,0,1,1.11.94.51.51,0,0,0,.57.34h4.66a5.72,5.72,0,0,0-2.88-4.54,8.26,8.26,0,0,0-4.23-1.1A10.92,10.92,0,0,0,50,5.64" fill="#00b300"/><path d="M75.49,11.79a10.21,10.21,0,0,0-.08-1.29,4.88,4.88,0,0,0-3.25-4.29,11.06,11.06,0,0,0-3.84-.7,11.24,11.24,0,0,0-3.39.53,5.1,5.1,0,0,0-3.34,2.78,7.65,7.65,0,0,0-.48,1.71h5.18C66.71,9.42,67.78,9,69.2,9.31a1.76,1.76,0,0,1,1.26,2.15H67.2a9.32,9.32,0,0,0-3.77.66,5,5,0,0,0-1.34,8.41,5.93,5.93,0,0,0,4.13,1.32,5.25,5.25,0,0,0,3.54-1.31c.32-.27.53-.43,1-.27v1.19H75.5S75.5,14.89,75.49,11.79Zm-6,5.72a2.93,2.93,0,0,1-1.72.55,3.31,3.31,0,0,1-1.32-.28,1.57,1.57,0,0,1-.89-1.47,1.52,1.52,0,0,1,.77-1.37,2.67,2.67,0,0,1,1.3-.36c.93-.05,2.84,0,2.84,0C70.55,15.7,70.52,16.79,69.5,17.51Z" fill="#00b300"/><path d="M101.37,0V7.5a1.06,1.06,0,0,1-1-.41A3.06,3.06,0,0,0,98.83,6a6.35,6.35,0,0,0-7.68,3.44,10.72,10.72,0,0,0-.43,7.8,6.31,6.31,0,0,0,6.2,4.79,4.46,4.46,0,0,0,3.79-1.46.72.72,0,0,1,.84-.23v1.3h5V0ZM101,16.34a2.66,2.66,0,0,1-2.57,1.49h0a2.56,2.56,0,0,1-2.55-1.6,6,6,0,0,1,0-4.64A2.51,2.51,0,0,1,98.46,10a2.67,2.67,0,0,1,2.65,1.66A5.26,5.26,0,0,1,101,16.34Z" fill="#00b300"/></g></svg>
