<svg width="400" height="180" viewBox="0 0 400 180" fill="none" xmlns="http://www.w3.org/2000/svg">
<g clip-path="url(#clip0)">
<path d="M336.448 99.375C335.913 99.3114 335.373 99.4431 334.927 99.7461C334.481 100.049 334.158 100.503 334.018 101.025L323.701 125.962C323.538 126.435 323.233 126.844 322.828 127.134C322.422 127.424 321.937 127.58 321.439 127.58C320.941 127.58 320.456 127.424 320.05 127.134C319.645 126.844 319.34 126.435 319.177 125.962L307.402 100.462C307.261 100.071 306.992 99.7396 306.639 99.5216C306.286 99.3036 305.869 99.2123 305.458 99.2625H287.514L311.065 149.512C311.287 149.975 311.402 150.481 311.402 150.994C311.402 151.507 311.287 152.013 311.065 152.475L299.738 180H317.084C317.617 180.1 318.168 180.004 318.635 179.728C319.102 179.452 319.454 179.016 319.626 178.5L354.093 99.375H336.448Z" fill="#00B300"/>
<path d="M223.963 113.475C222.439 108.5 219.334 104.161 215.122 101.121C210.91 98.0806 205.823 96.5061 200.635 96.6375H198.841C196.571 96.618 194.325 97.1021 192.263 98.0551C190.202 99.0081 188.376 100.406 186.916 102.15C186.563 102.625 186.065 102.97 185.497 103.132C184.93 103.295 184.325 103.266 183.776 103.05V98.1375H165.084V178.575H184.486V151.35C185.062 151.111 185.706 151.089 186.297 151.289C186.888 151.489 187.387 151.897 187.701 152.437C189.257 154.487 191.435 155.974 193.906 156.675C198.981 158.308 204.458 158.166 209.442 156.273C214.426 154.379 218.623 150.846 221.346 146.25C223.986 141.254 225.58 135.77 226.03 130.134C226.48 124.497 225.777 118.828 223.963 113.475V113.475ZM204.748 136.687C203.776 138.322 202.388 139.667 200.725 140.584C199.062 141.5 197.186 141.955 195.29 141.9C193.521 141.958 191.767 141.549 190.206 140.713C188.644 139.877 187.329 138.644 186.392 137.137C184.806 134.06 183.978 130.646 183.978 127.181C183.978 123.717 184.806 120.302 186.392 117.225C187.49 115.362 189.151 113.9 191.135 113.05C193.118 112.2 195.32 112.007 197.42 112.5C199.336 112.738 201.138 113.543 202.596 114.811C204.054 116.08 205.102 117.756 205.607 119.625C207.258 125.246 206.955 131.262 204.748 136.687Z" fill="#00B300"/>
<path d="M286.355 120C286.356 118.383 286.256 116.767 286.056 115.162C285.826 111.581 284.552 108.147 282.392 105.287C280.231 102.426 277.281 100.266 273.906 99.075C269.315 97.3485 264.454 96.4595 259.551 96.45C255.19 96.5031 250.864 97.2368 246.729 98.625C244.01 99.3329 241.482 100.635 239.323 102.437C237.165 104.239 235.43 106.497 234.243 109.05C233.398 111.11 232.795 113.262 232.448 115.462H251.962C253.532 111.225 257.532 109.537 262.841 110.85C263.678 111.068 264.465 111.45 265.155 111.974C265.845 112.497 266.426 113.152 266.863 113.901C267.301 114.65 267.587 115.478 267.705 116.338C267.823 117.198 267.771 118.073 267.551 118.912H255.364C250.546 118.751 245.747 119.593 241.271 121.387C238.323 122.616 235.738 124.581 233.762 127.096C231.786 129.61 230.485 132.59 229.983 135.752C229.481 138.914 229.794 142.153 230.893 145.159C231.992 148.165 233.84 150.838 236.261 152.925C240.6 156.471 246.116 158.239 251.701 157.875C256.566 157.94 261.283 156.189 264.934 152.962C266.13 151.95 266.915 151.35 268.672 151.95V156.412H286.355C286.355 156.412 286.392 131.737 286.355 120ZM263.925 141.45C262.051 142.799 259.801 143.521 257.495 143.512C255.811 143.512 254.145 143.167 252.598 142.5C251.569 142.005 250.706 141.22 250.116 140.241C249.525 139.262 249.231 138.131 249.271 136.987C249.238 135.949 249.489 134.922 249.997 134.017C250.504 133.111 251.248 132.362 252.149 131.85C253.626 130.989 255.3 130.524 257.009 130.5C260.486 130.312 267.626 130.5 267.626 130.5C267.85 135 267.738 138.75 263.962 141.562L263.925 141.45Z" fill="#00B300"/>
<path d="M138.542 22.0874H9.83178C7.22423 22.0874 4.72348 23.1265 2.87966 24.9761C1.03584 26.8256 0 29.3342 0 31.9499L0 113.062C0 115.678 1.03584 118.187 2.87966 120.036C4.72348 121.886 7.22423 122.925 9.83178 122.925H138.542C139.833 122.925 141.112 122.67 142.305 122.174C143.497 121.679 144.581 120.952 145.494 120.036C146.407 119.12 147.131 118.033 147.625 116.837C148.12 115.64 148.374 114.358 148.374 113.062V31.9499C148.374 30.6547 148.12 29.3723 147.625 28.1757C147.131 26.9791 146.407 25.8919 145.494 24.9761C144.581 24.0602 143.497 23.3338 142.305 22.8381C141.112 22.3425 139.833 22.0874 138.542 22.0874V22.0874ZM129.495 104.025H18.6916V40.9874H129.346L129.495 104.025Z" fill="#00B300"/>
<path d="M321.495 23.1749C318.392 23.6427 315.577 25.262 313.608 27.7124C313.287 28.2559 312.781 28.665 312.184 28.8648C311.586 29.0646 310.937 29.0415 310.355 28.7999V22.4999H291.589V80.6249H310.991C310.991 80.6249 310.991 62.6999 310.991 54.8249C310.868 53.0056 311.119 51.1804 311.728 49.4625C312.337 47.7445 313.292 46.1705 314.533 44.8379C315.774 43.5053 317.274 42.4426 318.941 41.7158C320.608 40.9889 322.407 40.6134 324.224 40.6124C327.066 40.3124 330.056 40.2749 332.823 40.1999V22.0874C329.028 22.2078 325.244 22.571 321.495 23.1749" fill="#00B300"/>
<path d="M186.916 21.15C182.134 21.6232 177.57 23.3957 173.717 26.2765C169.863 29.1574 166.866 33.0377 165.047 37.5C162.487 43.6857 161.71 50.468 162.804 57.075C163.202 61.6124 164.751 65.9723 167.303 69.7399C169.854 73.5075 173.325 76.5575 177.383 78.6C184.158 81.9157 191.846 82.8533 199.215 81.2625C202.561 80.7478 205.771 79.5711 208.659 77.8007C211.547 76.0303 214.055 73.7016 216.038 70.95C218.425 67.6654 219.814 63.7585 220.038 59.7H201.869C201.562 59.7053 201.265 59.8106 201.022 59.9999C200.779 60.1893 200.604 60.4525 200.524 60.75C200.061 62.1767 199.252 63.4654 198.168 64.5C197.033 65.2928 195.746 65.8402 194.389 66.1076C193.032 66.375 191.634 66.3565 190.284 66.0532C188.934 65.75 187.662 65.1687 186.548 64.3461C185.434 63.5235 184.503 62.4777 183.813 61.275C182.451 58.455 181.69 55.3805 181.581 52.2486C181.471 49.1166 182.015 45.9963 183.178 43.0875C183.596 41.857 184.256 40.7233 185.119 39.7534C185.982 38.7836 187.03 37.9973 188.201 37.4413C189.372 36.8852 190.643 36.5707 191.938 36.5164C193.233 36.4621 194.525 36.669 195.739 37.125C196.668 37.321 197.533 37.7458 198.258 38.3612C198.982 38.9766 199.542 39.7631 199.888 40.65C200.033 41.0826 200.328 41.4489 200.719 41.6827C201.109 41.9166 201.571 42.0025 202.019 41.925H219.44C219.173 38.4194 218.052 35.0333 216.175 32.0645C214.297 29.0957 211.721 26.6354 208.673 24.9C203.867 22.1256 198.405 20.7007 192.86 20.775C190.872 20.7546 188.886 20.88 186.916 21.15" fill="#00B300"/>
<path d="M282.205 44.2126C282.208 42.5954 282.108 40.9796 281.906 39.3751C281.677 35.794 280.402 32.3597 278.242 29.4993C276.082 26.639 273.131 24.4788 269.757 23.2876C265.165 21.5658 260.304 20.677 255.402 20.6626C251.101 20.6706 246.827 21.3409 242.729 22.6501C240.01 23.3581 237.482 24.6597 235.323 26.4618C233.165 28.264 231.43 30.5222 230.243 33.0751C229.398 35.1355 228.796 37.2875 228.448 39.4876H247.813C249.383 35.3251 253.383 33.7501 258.691 34.9126C259.529 35.1308 260.315 35.5126 261.006 36.0362C261.696 36.5597 262.276 37.2147 262.714 37.9636C263.151 38.7125 263.437 39.5407 263.555 40.4006C263.673 41.2606 263.621 42.1354 263.402 42.9751H251.215C246.397 42.8132 241.598 43.6559 237.121 45.4501C234.174 46.6785 231.589 48.6436 229.613 51.1582C227.637 53.6728 226.336 56.6531 225.833 59.815C225.331 62.977 225.645 66.2153 226.744 69.2214C227.843 72.2275 229.691 74.9011 232.112 76.9876C236.451 80.5334 241.966 82.3017 247.551 81.9376C252.417 82.0025 257.133 80.2517 260.785 77.0251C261.981 76.0126 262.766 75.4126 264.523 76.0126V80.4751H282.243C282.243 80.4751 282.243 55.8376 282.205 44.2126ZM259.775 65.6626C257.902 67.012 255.652 67.7338 253.345 67.7251C251.646 67.7187 249.966 67.3613 248.411 66.6751C247.382 66.1801 246.52 65.395 245.929 64.416C245.338 63.437 245.044 62.3064 245.084 61.1626C245.051 60.1244 245.302 59.0972 245.81 58.1917C246.317 57.2863 247.061 56.5371 247.962 56.0251C249.44 55.1653 251.114 54.7004 252.822 54.6751C256.299 54.4876 263.439 54.6751 263.439 54.6751C263.738 58.8751 263.626 62.9626 259.813 65.6626H259.775Z" fill="#00B300"/>
<path d="M378.953 0V28.125C378.249 28.2286 377.531 28.1406 376.873 27.8701C376.216 27.5996 375.643 27.1566 375.214 26.5875C373.772 24.6507 371.758 23.2202 369.457 22.5C363.927 20.7645 357.955 21.1182 352.666 23.4944C347.378 25.8706 343.138 30.1052 340.747 35.4C336.563 44.6001 335.989 55.0442 339.139 64.65C340.42 69.826 343.405 74.4164 347.612 77.6768C351.819 80.9372 357.001 82.6765 362.317 82.6125C364.942 82.8901 367.595 82.5385 370.058 81.5867C372.522 80.6349 374.724 79.11 376.485 77.1375C376.843 76.6694 377.344 76.3317 377.911 76.176C378.478 76.0202 379.08 76.055 379.625 76.275V81.15H398.317V0H378.953ZM377.569 61.275C376.704 63.0594 375.327 64.5441 373.616 65.5395C371.904 66.5348 369.936 66.9955 367.962 66.8625C365.945 67.0007 363.936 66.4945 362.223 65.4166C360.511 64.3387 359.183 62.7445 358.429 60.8625C357.278 58.1074 356.685 55.1499 356.685 52.1625C356.685 49.1751 357.278 46.2176 358.429 43.4625C359.169 41.5501 360.512 39.9326 362.253 38.8563C363.994 37.7799 366.038 37.3037 368.074 37.5C370.168 37.3612 372.252 37.888 374.031 39.0055C375.809 40.1231 377.191 41.7744 377.981 43.725C379.267 46.4836 379.9 49.5036 379.829 52.5484C379.757 55.5932 378.984 58.5801 377.569 61.275V61.275Z" fill="#00B300"/>
</g>
<defs>
<clipPath id="clip0">
<rect width="400" height="180" fill="white"/>
</clipPath>
</defs>
</svg>
