<?xml version="1.0" encoding="UTF-8"?>
<svg width="111px" height="50px" viewBox="0 0 111 50" version="1.1" xmlns="http://www.w3.org/2000/svg" xmlns:xlink="http://www.w3.org/1999/xlink">
    <!-- Generator: Sketch 54.1 (76490) - https://sketchapp.com -->
    <desc>Created with Sketch.</desc>
    <g id="cardpay_logo_xs" stroke="none" stroke-width="1" fill="none" fill-rule="evenodd">
        <path d="M5.18691589,29.015544 L36.0490654,29.015544 L36.0490654,11.3989637 L5.18691589,11.3989637 L5.18691589,29.015544 Z M2.7282836,6.21761658 L38.5076977,6.21761658 C40.0120212,6.21761658 41.2359813,7.4429667 41.2359813,8.94946936 L41.2359813,31.4650384 C41.2359813,32.9715411 40.0120212,34.1968912 38.5076977,34.1968912 L2.7282836,34.1968912 C1.22396012,34.1968912 0,32.9715411 0,31.4650384 L0,8.94946936 C0,7.4429667 1.22396012,6.21761658 2.7282836,6.21761658 Z M105.575587,7.75326164 L105.575587,0 L111,0 L111,22.3915475 L105.761494,22.3915475 L105.761494,21.0431541 C105.393913,20.9659183 105.144497,20.9773324 104.886613,21.2843735 C103.858927,22.5083524 102.447109,22.8290904 100.92444,22.7956089 C97.7555475,22.7267434 95.4041857,20.976952 94.4396232,17.847188 C93.6009233,15.1271925 93.6779036,12.4045338 94.892267,9.78612438 C96.3013906,6.74767373 99.7200836,5.25546192 102.918228,6.23517773 C103.63145,6.45394922 104.080245,6.76099025 104.562141,7.32484999 C104.866983,7.68173288 105.115629,7.75326164 105.575587,7.75326164 Z M105.450788,16.8614709 C106.261473,15.2841665 106.264175,13.6618503 105.546912,12.0641203 C105.02846,10.9093216 104.057182,10.3563195 102.762789,10.3627497 C101.532478,10.366154 100.675854,10.761804 100.082896,11.9812835 C99.4304881,13.3221813 99.4212231,15.2535282 100.072473,16.7540478 C100.562359,17.8823689 101.523599,18.3903593 102.744259,18.3937636 C103.933263,18.3971678 104.897206,17.9391065 105.450788,16.8614709 Z M55.3564748,26.9569868 C58.7433064,26.7707211 61.1850655,28.4517212 62.3978444,31.6305281 C63.3764767,34.1956183 63.2549674,38.1217924 61.6583733,40.7963376 C59.9529994,43.6529241 56.6714758,44.4594354 53.9859266,43.6486995 C53.2873444,43.4378544 52.6817264,43.0526492 52.2446785,42.4696567 C52.0163181,42.1651026 51.7798571,42.044894 51.343195,42.1666388 L51.343195,49.7409326 L45.9042056,49.7409326 L45.9042056,27.3575541 L51.1588094,27.3575541 L51.1588094,28.7320799 C51.5372242,28.8092746 51.7841003,28.798137 52.0386913,28.4805252 C52.8803845,27.4320604 54.0611467,27.0280366 55.3564748,26.9569868 Z M57.0671686,37.695726 C57.6237035,36.6932608 57.7657733,34.3459974 57.2755377,33.0310166 C56.8883501,31.9911854 56.1836838,31.2778347 55.0418213,31.1298805 C53.8090342,30.9698484 52.6796738,31.2457528 52.0181967,32.3693745 C51.1949495,33.7681456 51.0646241,36.1976897 52.0144082,37.8187696 C53.0714077,39.6229051 56.0548738,39.5198656 57.0671686,37.695726 Z M69.906567,11.9238345 C71.0355885,11.9142025 72.1649949,11.9219081 73.3174976,11.9219081 C73.4433721,10.7005694 72.958351,9.90419494 71.9952375,9.66955921 C70.5128434,9.30816624 69.3949851,9.77512602 68.9538468,10.958322 L63.5346975,10.958322 C63.5866641,10.5607127 63.796455,9.71733397 64.0385806,9.17216228 C64.7179952,7.64298458 65.9825147,6.74528137 67.5280385,6.25828701 C70.0590022,5.45998613 72.6061332,5.51623706 75.0889797,6.43204845 C77.1380017,7.18758321 78.2139018,8.77455296 78.4887472,10.9174823 C78.5457179,11.3624811 78.576128,11.8140296 78.5768978,12.2624959 C78.5842116,15.5027037 78.5811321,22.3903604 78.5811321,22.3903604 L73.5884936,22.3903604 L73.5884936,21.1466755 C73.1377318,20.9829313 72.9094639,21.1455196 72.5784177,21.4287007 C71.4721075,22.3753345 70.3038224,22.7760261 68.8741647,22.7968312 C67.2762894,22.819948 65.7981297,22.4812866 64.5563215,21.4171423 C61.9968725,19.2229707 61.9306632,14.4038841 65.9598034,12.6188803 C67.2204735,12.0598385 68.5535119,11.9350077 69.906567,11.9238345 Z M73.3780323,15.297934 C73.3780323,15.297934 71.3633111,15.2594696 70.3872974,15.3150716 C69.9376036,15.3402068 69.4201848,15.4232289 69.016931,15.6852438 C68.4782272,16.0352316 68.2003613,16.4762391 68.2081013,17.1046177 C68.2162283,17.7786966 68.5668502,18.3720383 69.1454149,18.6203431 C70.1458095,19.0495447 71.3408651,19.0423088 72.3373897,18.3461415 C73.4070573,17.599323 73.4345343,16.4800475 73.3780323,15.297934 Z M79.7853004,31.9019382 C79.8422708,32.346937 79.8726806,32.7984856 79.8738354,33.2469519 C79.8811492,36.4871596 79.8776848,43.3748164 79.8776848,43.3748164 L74.8850815,43.3748164 L74.8850815,42.1311314 C74.4347078,41.9673873 74.2060566,42.1299756 73.8753977,42.4131567 C72.7687104,43.3597905 71.6004335,43.760482 70.170786,43.7812872 C68.572922,43.804404 67.0947726,43.4657426 65.8533582,42.4015982 C63.2935423,40.2074267 63.2273335,35.3883401 67.2564452,33.6033362 C68.5174914,33.0442944 69.8501354,32.9194636 71.2035658,32.9082905 C72.3321944,32.8986585 73.4615929,32.9063641 74.6140874,32.9063641 C74.7399611,31.6850254 74.2549433,30.8890362 73.2918367,30.6540152 C71.8094531,30.2926222 70.6919876,30.759582 70.2504675,31.9427779 L64.8317414,31.9427779 C64.8833227,31.5451686 65.0931121,30.7017899 65.335236,30.1566182 C66.0146458,28.6274405 67.2791564,27.7297373 68.8250542,27.242743 C71.356,26.4444421 73.9027281,26.500693 76.385557,27.4165044 C78.4345645,28.1720392 79.510457,29.7590089 79.7853004,31.9019382 Z M73.6340071,39.3305723 C74.7036497,38.5837206 74.731513,37.464776 74.6746254,36.2822291 C74.6746254,36.2822291 72.6599512,36.2441439 71.6843474,36.2993675 C71.234664,36.3245038 70.7168703,36.4075296 70.3140129,36.6695561 C69.7753217,37.0195595 69.4974623,37.4605867 69.5048151,38.0889932 C69.5129419,38.7631021 69.8635556,39.3564702 70.4421069,39.604786 C71.4424781,40.0340068 72.6375057,40.0267706 73.6340071,39.3305723 Z M93.1989471,27.9196751 C93.3519752,27.5900547 93.4949559,27.4611399 93.8813903,27.4611399 L98.8107477,27.4611399 L89.1193591,49.5773602 C88.9643989,49.9201037 88.7870255,50 88.4087062,50 L83.5404055,50 L86.7907053,42.3477106 C86.9209337,42.047424 86.8791988,41.7745415 86.753994,41.5151681 L80.1378505,27.4611399 L85.1785009,27.4611399 C85.5004008,27.4611399 85.6232869,27.5819493 85.7245328,27.7996377 L89.0327978,34.9254607 C89.2217642,35.2932925 89.4509198,35.3538901 89.6924413,35.3538901 C90.006226,35.3538901 90.1971246,35.1412193 90.3010755,34.8930391 C90.4046399,34.6448588 93.1989471,27.9196751 93.1989471,27.9196751 Z M49.311495,21.8532185 C46.8688238,20.6127805 45.6252333,18.5036117 45.2507364,15.8434371 C44.9871305,13.9729475 45.1179742,12.1302204 45.8742584,10.3730939 C47.0391892,7.66549181 49.1676053,6.23457311 52.0062608,5.82199347 C54.1177939,5.51467948 56.1625621,5.75914256 58.0442554,6.85652726 C59.7878145,7.87370957 60.8986428,9.63045051 61.0436836,11.6139175 L56.1909563,11.6189301 C55.8717131,11.6189301 55.7040337,11.5306304 55.5996657,11.2657311 C55.3955342,10.7478858 54.9842016,10.408568 54.4454786,10.2786247 C52.9402007,9.91617155 51.5270123,10.3094718 50.9422446,11.9486082 C50.344431,13.6232188 50.3451984,15.3267486 51.1394694,16.9639571 C51.9579139,18.6516777 54.2210107,18.620445 55.1380676,17.8700899 C55.4411952,17.6221566 55.6418733,17.2342546 55.7938208,16.8652465 C55.8701783,16.680164 55.9872085,16.5760551 56.1687014,16.5760551 L61.2056075,16.5760551 C61.142296,17.7420746 60.747079,18.7997437 60.0909421,19.7197577 C58.9344528,21.3411571 57.322121,22.2422773 55.3989875,22.6001034 C53.2962797,22.9922468 51.2376981,22.8302996 49.311495,21.8532185 Z M81.1752336,6.32539584 L86.3557992,6.32539584 L86.3557992,8.09105099 C86.7768198,8.22577505 87.0114372,8.09682487 87.2532678,7.78734444 C87.8045049,7.08293003 88.5694792,6.66644019 89.4289839,6.51785879 C90.4490762,6.34156272 91.4220931,6.26919665 92.5864486,6.21761658 L92.5864486,11.2647651 C91.8176779,11.2894004 90.994239,11.301718 90.2102827,11.3821675 C87.8895442,11.6196668 86.6188896,12.9676773 86.5570083,15.3415154 C86.4993031,17.5402122 86.5254982,22.5388601 86.5254982,22.5388601 L81.1752336,22.5388601 L81.1752336,6.32539584 Z" id="Combined-Shape-Copy-6" fill="#00B300"></path>
    </g>
</svg>
