<svg width="107" height="48" viewBox="0 0 107 48" fill="none" xmlns="http://www.w3.org/2000/svg">
<g clip-path="url(#clip0)">
<path d="M89.9999 26.5C89.8568 26.4831 89.7123 26.5182 89.593 26.599C89.4736 26.6798 89.3873 26.8008 89.3499 26.94L86.5899 33.59C86.5465 33.7159 86.4648 33.8251 86.3564 33.9024C86.2479 33.9797 86.1181 34.0213 85.9849 34.0213C85.8517 34.0213 85.7219 33.9797 85.6134 33.9024C85.505 33.8251 85.4233 33.7159 85.3799 33.59L82.2299 26.79C82.1922 26.6857 82.1203 26.5972 82.0258 26.5391C81.9314 26.481 81.82 26.4566 81.7099 26.47H76.9099L83.2099 39.87C83.2693 39.9932 83.3001 40.1282 83.3001 40.265C83.3001 40.4018 83.2693 40.5368 83.2099 40.66L80.1799 48H84.8199C84.9625 48.0268 85.1099 48.001 85.2349 47.9275C85.3599 47.8539 85.4541 47.7376 85.4999 47.6L94.7199 26.5H89.9999Z" fill="#00B300"/>
<path d="M59.9099 30.26C59.5022 28.9332 58.6717 27.7762 57.5451 26.9655C56.4184 26.1548 55.0575 25.735 53.6699 25.77H53.1899C52.5827 25.7648 51.9819 25.8939 51.4304 26.148C50.8789 26.4022 50.3905 26.775 49.9999 27.24C49.9056 27.3666 49.7722 27.4586 49.6205 27.502C49.4687 27.5453 49.3069 27.5376 49.1599 27.48V26.17H44.1599V47.62H49.3499V40.36C49.5041 40.2962 49.6762 40.2904 49.8343 40.3437C49.9924 40.397 50.1259 40.5058 50.2099 40.65C50.6262 41.1966 51.2087 41.5932 51.8699 41.78C53.2274 42.2155 54.6925 42.1777 56.0257 41.6727C57.359 41.1677 58.4815 40.2255 59.2099 39C59.9162 37.6678 60.3426 36.2053 60.463 34.7023C60.5834 33.1993 60.3952 31.6876 59.9099 30.26V30.26ZM54.7699 36.45C54.5101 36.886 54.1387 37.2446 53.6939 37.489C53.2491 37.7334 52.7472 37.8545 52.2399 37.84C51.7667 37.8556 51.2977 37.7465 50.8799 37.5235C50.4622 37.3006 50.1104 36.9718 49.8599 36.57C49.4355 35.7493 49.2141 34.8389 49.2141 33.915C49.2141 32.9911 49.4355 32.0807 49.8599 31.26C50.1535 30.7633 50.5979 30.3733 51.1285 30.1466C51.659 29.92 52.2481 29.8686 52.8099 30C53.3224 30.0634 53.8043 30.278 54.1943 30.6164C54.5844 30.9548 54.8648 31.4016 54.9999 31.9C55.4414 33.3989 55.3603 35.0033 54.7699 36.45Z" fill="#00B300"/>
<path d="M76.6 32C76.6003 31.5688 76.5735 31.1379 76.52 30.71C76.4586 29.755 76.1177 28.8392 75.5399 28.0765C74.962 27.3137 74.1727 26.7377 73.27 26.42C72.042 25.9596 70.7415 25.7226 69.43 25.72C68.2635 25.7342 67.1063 25.9298 66 26.3C65.2729 26.4888 64.5965 26.8359 64.0191 27.3165C63.4417 27.797 62.9776 28.3992 62.66 29.08C62.434 29.6294 62.2729 30.2033 62.18 30.79H67.4C67.82 29.66 68.89 29.21 70.31 29.56C70.5341 29.6182 70.7444 29.72 70.9291 29.8596C71.1137 29.9992 71.269 30.1739 71.3861 30.3736C71.5031 30.5733 71.5796 30.7942 71.6111 31.0235C71.6427 31.2528 71.6287 31.4861 71.57 31.71H68.31C67.0212 31.6668 65.7375 31.8916 64.54 32.37C63.7515 32.6976 63.06 33.2216 62.5315 33.8922C62.0029 34.5627 61.6549 35.3575 61.5205 36.2007C61.3862 37.0438 61.47 37.9074 61.764 38.709C62.058 39.5106 62.5524 40.2236 63.2 40.78C64.3607 41.7256 65.8361 42.1971 67.33 42.1C68.6316 42.1173 69.8932 41.6504 70.87 40.79C71.19 40.52 71.4 40.36 71.87 40.52V41.71H76.6C76.6 41.71 76.61 35.13 76.6 32ZM70.6 37.72C70.0989 38.0798 69.4969 38.2723 68.88 38.27C68.4295 38.2698 67.9838 38.1779 67.57 38C67.2948 37.868 67.0641 37.6587 66.906 37.3976C66.748 37.1365 66.6694 36.835 66.68 36.53C66.6714 36.2532 66.7385 35.9792 66.8742 35.7378C67.0099 35.4963 67.209 35.2965 67.45 35.16C67.8452 34.9303 68.2929 34.8063 68.75 34.8C69.68 34.75 71.59 34.8 71.59 34.8C71.65 36 71.62 37 70.61 37.75L70.6 37.72Z" fill="#00B300"/>
<path d="M37.06 5.89001H2.63C1.93248 5.89001 1.26353 6.1671 0.770309 6.66032C0.277088 7.15354 0 7.8225 0 8.52002L0 30.15C0 30.8475 0.277088 31.5165 0.770309 32.0097C1.26353 32.5029 1.93248 32.78 2.63 32.78H37.06C37.4054 32.78 37.7474 32.712 38.0665 32.5798C38.3855 32.4476 38.6755 32.2539 38.9197 32.0097C39.1639 31.7655 39.3576 31.4756 39.4898 31.1565C39.622 30.8374 39.69 30.4954 39.69 30.15V8.52002C39.69 8.17464 39.622 7.83264 39.4898 7.51356C39.3576 7.19447 39.1639 6.90454 38.9197 6.66032C38.6755 6.41611 38.3855 6.22238 38.0665 6.09021C37.7474 5.95804 37.4054 5.89001 37.06 5.89001V5.89001ZM34.64 27.74H5V10.93H34.6L34.64 27.74Z" fill="#00B300"/>
<path d="M86 6.18001C85.1699 6.30475 84.4169 6.73657 83.89 7.39001C83.8041 7.53494 83.6689 7.64405 83.5091 7.69732C83.3493 7.75059 83.1756 7.74444 83.02 7.68001V6.00001H78V21.5H83.19C83.19 21.5 83.19 16.72 83.19 14.62C83.1571 14.1349 83.2243 13.6482 83.3873 13.19C83.5503 12.7319 83.8056 12.3122 84.1375 11.9568C84.4695 11.6015 84.8708 11.3181 85.3168 11.1242C85.7627 10.9304 86.2438 10.8303 86.73 10.83C87.49 10.75 88.29 10.74 89.03 10.72V5.89001C88.0149 5.92212 87.0028 6.01898 86 6.18001" fill="#00B300"/>
<path d="M50 5.64001C48.7207 5.76622 47.4999 6.23886 46.4691 7.0071C45.4384 7.77533 44.6366 8.81008 44.15 10C43.4653 11.6495 43.2575 13.4582 43.55 15.22C43.6565 16.43 44.0707 17.5926 44.7534 18.5973C45.436 19.602 46.3643 20.4154 47.45 20.96C49.2622 21.8442 51.3188 22.0942 53.29 21.67C54.1849 21.5328 55.0436 21.219 55.8161 20.7469C56.5887 20.2748 57.2596 19.6538 57.79 18.92C58.4285 18.0441 58.8001 17.0023 58.86 15.92H54C53.9178 15.9214 53.8382 15.9495 53.7733 16C53.7084 16.0505 53.6616 16.1207 53.64 16.2C53.5163 16.5805 53.2998 16.9241 53.01 17.2C52.7064 17.4114 52.3621 17.5574 51.999 17.6287C51.6359 17.7 51.262 17.6951 50.9009 17.6142C50.5399 17.5334 50.1996 17.3783 49.9016 17.159C49.6036 16.9396 49.3545 16.6607 49.17 16.34C48.8055 15.588 48.6021 14.7682 48.5728 13.933C48.5435 13.0978 48.689 12.2657 49 11.49C49.1118 11.1619 49.2884 10.8596 49.5192 10.6009C49.75 10.3423 50.0304 10.1326 50.3437 9.98436C50.6571 9.83608 50.997 9.75222 51.3433 9.73773C51.6897 9.72324 52.0354 9.77842 52.36 9.90001C52.6085 9.95228 52.8401 10.0656 53.0339 10.2297C53.2276 10.3938 53.3775 10.6035 53.47 10.84C53.5088 10.9554 53.5876 11.0531 53.6921 11.1154C53.7967 11.1778 53.9201 11.2007 54.04 11.18H58.7C58.6288 10.2452 58.3289 9.34222 57.8267 8.55055C57.3245 7.75888 56.6354 7.10279 55.82 6.64001C54.5344 5.90019 53.0732 5.52022 51.59 5.54001C51.0583 5.53459 50.5269 5.56801 50 5.64001" fill="#00B300"/>
<path d="M75.4899 11.79C75.4905 11.3588 75.4638 10.9279 75.4099 10.5C75.3485 9.54505 75.0076 8.62923 74.4298 7.86647C73.8519 7.1037 73.0626 6.52767 72.1599 6.21001C70.9315 5.75087 69.6313 5.51384 68.3199 5.51001C67.1694 5.51214 66.0261 5.69089 64.9299 6.04001C64.2028 6.2288 63.5264 6.57589 62.949 7.05647C62.3716 7.53705 61.9075 8.13924 61.5899 8.82001C61.3641 9.36944 61.203 9.94331 61.1099 10.53H66.2899C66.7099 9.42001 67.7799 9.00001 69.1999 9.31001C69.4239 9.3682 69.6343 9.47001 69.819 9.60962C70.0036 9.74923 70.1589 9.9239 70.2759 10.1236C70.393 10.3233 70.4695 10.5442 70.501 10.7735C70.5326 11.0028 70.5186 11.2361 70.4599 11.46H67.1999C65.9111 11.4168 64.6274 11.6416 63.4299 12.12C62.6414 12.4476 61.9499 12.9716 61.4214 13.6422C60.8928 14.3127 60.5448 15.1075 60.4104 15.9507C60.2761 16.7939 60.3599 17.6574 60.6539 18.459C60.9479 19.2606 61.4423 19.9736 62.0899 20.53C63.2506 21.4756 64.726 21.9471 66.2199 21.85C67.5215 21.8673 68.7831 21.4004 69.7599 20.54C70.0799 20.27 70.2899 20.11 70.7599 20.27V21.46H75.4999C75.4999 21.46 75.4999 14.89 75.4899 11.79ZM69.4899 17.51C68.9888 17.8699 68.3868 18.0623 67.7699 18.06C67.3153 18.0583 66.866 17.963 66.4499 17.78C66.1747 17.648 65.944 17.4387 65.7859 17.1776C65.6279 16.9165 65.5493 16.615 65.5599 16.31C65.5512 16.0332 65.6184 15.7592 65.7541 15.5178C65.8898 15.2763 66.0889 15.0765 66.3299 14.94C66.7253 14.7107 67.1729 14.5868 67.6299 14.58C68.5599 14.53 70.4699 14.58 70.4699 14.58C70.5499 15.7 70.5199 16.79 69.4999 17.51H69.4899Z" fill="#00B300"/>
<path d="M101.37 0V7.5C101.182 7.52764 100.99 7.50416 100.814 7.43202C100.638 7.35989 100.484 7.24175 100.37 7.09C99.9842 6.57353 99.4452 6.19206 98.8299 6C97.3505 5.5372 95.7529 5.63151 94.3383 6.26517C92.9236 6.89882 91.7896 8.02804 91.1499 9.44C90.0306 11.8934 89.8771 14.6785 90.7199 17.24C91.0624 18.6203 91.8611 19.8444 92.9864 20.7138C94.1118 21.5833 95.4979 22.0471 96.9199 22.03C97.6221 22.104 98.3318 22.0103 98.9907 21.7565C99.6496 21.5026 100.239 21.096 100.71 20.57C100.806 20.4452 100.939 20.3551 101.091 20.3136C101.243 20.2721 101.404 20.2813 101.55 20.34V21.64H106.55V0H101.37ZM101 16.34C100.768 16.8158 100.4 17.2118 99.9423 17.4772C99.4845 17.7426 98.9579 17.8655 98.4299 17.83C97.8903 17.8668 97.353 17.7319 96.8949 17.4444C96.4368 17.157 96.0815 16.7319 95.8799 16.23C95.5719 15.4953 95.4132 14.7066 95.4132 13.91C95.4132 13.1134 95.5719 12.3247 95.8799 11.59C96.0779 11.08 96.4371 10.6487 96.9029 10.3617C97.3686 10.0747 97.9153 9.94765 98.4599 10C99.02 9.96299 99.5776 10.1035 100.053 10.4015C100.529 10.6995 100.899 11.1399 101.11 11.66C101.454 12.3956 101.623 13.201 101.604 14.0129C101.585 14.8249 101.378 15.6214 101 16.34V16.34Z" fill="#00B300"/>
</g>
<defs>
<clipPath id="clip0">
<rect width="107" height="48" fill="white"/>
</clipPath>
</defs>
</svg>
