<?xml version="1.0" encoding="UTF-8"?>
<svg width="428px" height="193px" viewBox="0 0 428 193" version="1.1" xmlns="http://www.w3.org/2000/svg" xmlns:xlink="http://www.w3.org/1999/xlink">
    <!-- Generator: Sketch 54.1 (76490) - https://sketchapp.com -->
    <desc>Created with Sketch.</desc>
    <g id="cardpay_logo" stroke="none" stroke-width="1" fill="none" fill-rule="evenodd">
        <path d="M20,112 L139,112 L139,44 L20,44 L20,112 Z M10.5198683,24 L148.480132,24 C154.280586,24 159,28.7298515 159,34.5449517 L159,121.455048 C159,127.270149 154.280586,132 148.480132,132 L10.5198683,132 C4.71941378,132 0,127.270149 0,121.455048 L0,34.5449517 C0,28.7298515 4.71941378,24 10.5198683,24 Z M407.084243,29.9275899 L407.084243,0 L428,0 L428,86.4313732 L407.801075,86.4313732 L407.801075,81.2265749 C406.383737,80.9284446 405.422025,80.9725032 404.427662,82.1576816 C400.465051,86.8822403 395.021285,88.1202891 389.150092,87.9910503 C376.9313,87.7252296 367.864788,80.9710346 364.145574,68.8901457 C360.911668,58.3909632 361.208493,47.8815004 365.890904,37.7744401 C371.324281,26.0460206 384.506268,20.286083 396.837853,24.067786 C399.587934,24.912244 401.318423,26.0974224 403.176546,28.273921 C404.351972,29.6514889 405.310716,29.9275899 407.084243,29.9275899 Z M406.603038,65.0852778 C409.728921,58.9968827 409.739341,52.734742 406.973678,46.5675044 C404.974601,42.1099815 401.229495,39.9753931 396.2385,40.0002139 C391.4946,40.0133544 388.191583,41.5405633 385.905222,46.2477541 C383.38963,51.42362 383.353905,58.8786189 385.865032,64.6706245 C387.753959,69.0259441 391.460364,70.9867869 396.167052,70.9999273 C400.751681,71.0130677 404.468506,69.2449511 406.603038,65.0852778 Z M213.446587,104.053969 C226.505722,103.334983 235.920793,109.823644 240.597094,122.093838 C244.370559,131.995087 243.902036,147.150119 237.7458,157.473863 C231.170124,168.500287 218.517042,171.613421 208.161951,168.48398 C205.468319,167.670118 203.133143,166.183226 201.44795,163.932875 C200.567425,162.757296 199.655665,162.293291 197.971959,162.763226 L197.971959,192 L177,192 L177,105.600159 L197.260995,105.600159 L197.260995,110.905828 C198.720108,111.2038 199.672026,111.160809 200.653692,109.934827 C203.89914,105.887753 208.451989,104.328221 213.446587,104.053969 Z M220.042776,145.505503 C222.188694,141.635987 222.736495,132.57555 220.846217,127.499724 C219.353278,123.485976 216.636186,120.732442 212.233329,120.161339 C207.479879,119.543615 203.125229,120.608606 200.574669,124.945785 C197.400346,130.345042 196.89783,139.723082 200.560061,145.980451 C204.635698,152.944414 216.139513,152.546681 220.042776,145.505503 Z M269.549646,46.0260012 C273.90299,45.9888217 278.257818,46.0185653 282.701702,46.0185653 C283.187057,41.3041979 281.316885,38.2301925 277.603258,37.3244985 C271.88736,35.9295217 267.57706,37.7319864 265.876094,42.2991228 L244.980635,42.2991228 C245.181011,40.7643508 245.989935,37.5089091 246.923536,35.4045464 C249.543261,29.5019205 254.419066,26.0367861 260.378383,24.1569879 C270.137414,21.0755465 279.958784,21.292675 289.532282,24.827707 C297.433016,27.7440712 301.581531,33.8697744 302.641295,42.1414815 C302.860966,43.8591769 302.978223,45.6021543 302.981192,47.3332344 C303.009393,59.8404362 302.997519,86.4267913 302.997519,86.4267913 L283.746624,86.4267913 L283.746624,81.6261674 C282.008552,80.9941149 281.128383,81.6217058 279.851917,82.7147847 C275.586144,86.3687912 271.081405,87.9154606 265.568851,87.9957685 C259.407675,88.0849994 253.708104,86.7777663 248.91987,82.6701692 C239.051004,74.2006669 238.79571,55.5989927 254.331494,48.7088778 C259.192456,46.5509765 264.33246,46.0691295 269.549646,46.0260012 Z M282.935115,59.0500254 C282.935115,59.0500254 275.166641,58.9015528 271.403273,59.1161765 C269.669318,59.2131982 267.674226,59.5336636 266.119337,60.5450409 C264.042173,61.8959939 262.970763,63.598283 263.000607,66.0238244 C263.031943,68.6257688 264.383891,70.9160679 266.614753,71.8745242 C270.47213,73.5312425 275.080092,73.503312 278.922548,70.8161062 C283.047032,67.933387 283.152979,63.6129832 282.935115,59.0500254 Z M307.640618,123.141481 C307.860287,124.859177 307.977543,126.602154 307.981996,128.333234 C308.010197,140.840436 307.996839,167.426791 307.996839,167.426791 L288.74608,167.426791 L288.74608,162.626167 C287.009504,161.994115 286.127858,162.621706 284.852885,163.714785 C280.585658,167.368791 276.080951,168.915461 270.568436,168.995768 C264.407303,169.084999 258.707772,167.777766 253.921057,163.670169 C244.050776,155.200667 243.795484,136.598993 259.331158,129.708878 C264.19357,127.550977 269.332053,127.06913 274.550686,127.026001 C278.902515,126.988822 283.257313,127.018565 287.701166,127.018565 C288.186517,122.304198 286.316358,119.23168 282.602758,118.324499 C276.8869,116.929522 272.578114,118.731986 270.875676,123.299123 L249.98185,123.299123 C250.18074,121.764351 250.989658,118.508909 251.923253,116.404546 C254.542959,110.50192 259.418729,107.036786 265.379488,105.156988 C275.13845,102.075546 284.958267,102.292675 294.531697,105.827707 C302.432375,108.744071 306.580861,114.869774 307.640618,123.141481 Z M283.922117,151.816009 C288.046505,148.933161 288.153942,144.614035 287.934591,140.049404 C287.934591,140.049404 280.166298,139.902395 276.404511,140.115559 C274.670596,140.212584 272.674059,140.533064 271.120698,141.544486 C269.043583,142.8955 267.972197,144.597864 268.000548,147.023514 C268.031884,149.625574 269.3838,151.915975 271.61461,152.874474 C275.471898,154.531266 280.079752,154.503334 283.922117,151.816009 Z M359.361706,107.769946 C359.95176,106.497611 360.503073,106 361.993109,106 L381,106 L343.631402,191.36861 C343.033898,192.6916 342.349972,193 340.891227,193 L322.119762,193 L334.652449,163.462163 C335.154591,162.303057 334.993667,161.24973 334.510896,160.248549 L309,106 L328.436022,106 C329.677221,106 330.151052,106.466324 330.541442,107.306602 L343.297635,134.812278 C344.026262,136.232109 344.909853,136.466016 345.841125,136.466016 C347.051034,136.466016 347.787111,135.645107 348.187931,134.687131 C348.58726,133.729155 359.361706,107.769946 359.361706,107.769946 Z M190.138017,84.3534236 C180.719429,79.5653328 175.924323,71.4239413 174.480317,61.1556671 C173.463891,53.9355775 173.968405,46.8226507 176.884528,40.0401423 C181.376333,29.5887984 189.583199,24.0654522 200.528645,22.4728948 C208.670412,21.2866628 216.554744,22.2302903 223.810282,26.4661952 C230.533195,30.3925189 234.816389,37.173539 235.375645,44.8297214 L216.664228,44.8490702 C215.433272,44.8490702 214.786724,44.5082332 214.384296,43.485722 C213.597195,41.4868393 212.011156,40.1770724 209.933918,39.6754913 C204.129783,38.2764222 198.680732,39.794561 196.425952,46.1216278 C194.120869,52.5856247 194.123828,59.1612495 197.186423,65.4808744 C200.342227,71.9954759 209.068402,71.8749179 212.604441,68.9785471 C213.773257,68.0215243 214.547043,66.5242227 215.132931,65.0998513 C215.427354,64.385433 215.878606,63.9835728 216.578416,63.9835728 L236,63.9835728 C235.75588,68.4844078 234.23198,72.5670105 231.702011,76.1182647 C227.242755,82.3768664 221.025836,85.8551903 213.610511,87.2363989 C205.502772,88.7500726 197.565178,88.1249566 190.138017,84.3534236 Z M313,24.4160279 L332.975514,24.4160279 L332.975514,31.2314568 C334.598909,31.7514917 335.50356,31.253744 336.436024,30.0591495 C338.561514,27.3401099 341.511145,25.7324591 344.825271,25.1589349 C348.7586,24.4784321 352.510413,24.1990991 357,24 L357,43.4819933 C354.035731,43.5770854 350.860669,43.6246315 347.837847,43.9351666 C338.889414,44.8519139 333.989953,50.0552345 333.751347,59.2182496 C333.528844,67.7052192 333.629849,87 333.629849,87 L313,87 L313,24.4160279 Z" id="Combined-Shape-Copy-6" fill="#00B300"></path>
    </g>
</svg>
