<svg width="50" height="50" viewBox="0 0 50 50" fill="none" xmlns="http://www.w3.org/2000/svg">
<circle cx="25" cy="25" r="25" fill="#0064FF"/>
<g clip-path="url(#clip0)">
<path d="M18.362 19.393V37.458H12.346V19.393H18.362ZM18.745 13.815C18.757 14.7017 18.4503 15.443 17.825 16.039C17.1997 16.635 16.3763 16.9327 15.355 16.932H15.318C14.3213 16.932 13.519 16.6343 12.911 16.039C12.303 15.4437 11.9993 14.7023 12 13.815C12 12.9157 12.313 12.1713 12.939 11.582C13.565 10.9927 14.3823 10.698 15.391 10.698C16.3997 10.698 17.2077 10.9927 17.815 11.582C18.4223 12.1713 18.7323 12.9157 18.745 13.815V13.815ZM40 27.105V37.458H34.003V27.797C34.003 26.521 33.7567 25.5213 33.264 24.798C32.7713 24.0747 32.0027 23.7133 30.958 23.714C30.1927 23.714 29.5517 23.9233 29.035 24.342C28.5183 24.7607 28.1327 25.2803 27.878 25.901C27.7447 26.2657 27.678 26.758 27.678 27.378V37.458H21.68C21.704 32.6093 21.716 28.678 21.716 25.664C21.716 22.65 21.71 20.8513 21.698 20.268L21.68 19.393H27.677V22.018H27.641C27.8837 21.6293 28.1327 21.2893 28.388 20.998C28.6433 20.7067 28.9867 20.3903 29.418 20.049C29.8493 19.7077 30.378 19.4437 31.004 19.257C31.63 19.0703 32.3257 18.976 33.091 18.974C35.169 18.974 36.84 19.6637 38.104 21.043C39.368 22.4223 40 24.4427 40 27.104V27.105Z" fill="white"/>
</g>
<defs>
<clipPath id="clip0">
<rect width="28" height="32" fill="white" transform="translate(12 8)"/>
</clipPath>
</defs>
</svg>
