<svg width="50" height="50" viewBox="0 0 50 50" fill="none" xmlns="http://www.w3.org/2000/svg">
<circle cx="25" cy="25" r="25" fill="#0064FF"/>
<path d="M39.207 16.355C38.4016 17.533 37.4283 18.5367 36.287 19.366C36.2983 19.5347 36.304 19.787 36.304 20.123C36.304 21.6857 36.0756 23.2453 35.619 24.802C35.1623 26.3587 34.4683 27.852 33.537 29.282C32.6056 30.712 31.4966 31.977 30.21 33.077C28.9233 34.177 27.373 35.0543 25.559 35.709C23.745 36.3637 21.804 36.6913 19.736 36.692C16.4786 36.692 13.4976 35.8207 10.793 34.078C11.2136 34.126 11.6826 34.15 12.2 34.15C14.904 34.15 17.314 33.3207 19.43 31.662C18.1673 31.638 17.0373 31.2503 16.04 30.499C15.0426 29.7477 14.3573 28.789 13.984 27.623C14.3806 27.683 14.7473 27.713 15.084 27.713C15.6006 27.713 16.1116 27.647 16.617 27.515C15.2703 27.239 14.1553 26.569 13.272 25.505C12.3886 24.441 11.947 23.206 11.947 21.8V21.728C12.7643 22.1847 13.6416 22.4313 14.579 22.468C13.7856 21.9387 13.1546 21.2473 12.686 20.394C12.2173 19.5407 11.983 18.615 11.983 17.617C11.983 16.5597 12.2473 15.5803 12.776 14.679C14.2306 16.4697 16.0006 17.903 18.086 18.979C20.1713 20.055 22.404 20.653 24.784 20.773C24.6873 20.3157 24.639 19.8707 24.639 19.438C24.639 17.828 25.207 16.4547 26.343 15.318C27.479 14.1813 28.8523 13.6137 30.463 13.615C32.1456 13.615 33.564 14.228 34.718 15.454C36.028 15.2013 37.2596 14.7327 38.413 14.048C37.9683 15.43 37.115 16.4997 35.853 17.257C36.971 17.137 38.089 16.8363 39.207 16.355V16.355Z" fill="white"/>
</svg>
