<?xml version="1.0" encoding="utf-8"?>
<!-- Generator: Adobe Illustrator 21.1.0, SVG Export Plug-In . SVG Version: 6.00 Build 0)  -->
<svg version="1.1" id="Layer_1" xmlns="http://www.w3.org/2000/svg" xmlns:xlink="http://www.w3.org/1999/xlink" x="0px" y="0px"
	 viewBox="0 0 50 50" style="enable-background:new 0 0 50 50;" xml:space="preserve">
<style type="text/css">
	.st0{fill:#0064FF;}
	.st1{fill:#FFFFFF;}
</style>
<circle class="st0" cx="25" cy="25" r="25"/>
<g>
	<path class="st1" d="M42.1,17.3c-0.4-1.5-1.5-2.6-3-3c-2.7-0.7-13.4-0.7-13.4-0.7s-10.7,0-13.4,0.7c-1.4,0.4-2.6,1.6-3,3
		c-0.7,2.7-0.7,8.2-0.7,8.2s0,5.6,0.7,8.2c0.4,1.5,1.5,2.6,3,3c2.7,0.7,13.4,0.7,13.4,0.7s10.7,0,13.4-0.7c1.5-0.4,2.6-1.5,3-3
		c0.7-2.7,0.7-8.2,0.7-8.2S42.8,20,42.1,17.3z"/>
	<polygon class="st0" points="22.3,30.6 31.2,25.5 22.3,20.4 	"/>
</g>
</svg>
